<svg xmlns="http://www.w3.org/2000/svg" xmlns:xlink="http://www.w3.org/1999/xlink" width="500" zoomAndPan="magnify" viewBox="0 0 375 374.999991" height="500" preserveAspectRatio="xMidYMid meet" version="1.0"><defs><g/><clipPath id="03db87896c"><path d="M 0 1.0625 L 177.949219 1.0625 L 177.949219 179.011719 L 0 179.011719 Z M 0 1.0625 " clip-rule="nonzero"/></clipPath><clipPath id="f67eb9c6ae"><rect x="0" width="321" y="0" height="229"/></clipPath></defs><g transform="matrix(1, 0, 0, 1, 0, 64)"><g clip-path="url(#f67eb9c6ae)"><g clip-path="url(#03db87896c)"><path fill="#b6192e" d="M 91.214844 48.710938 C 91.351562 49.953125 91.539062 51.1875 91.777344 52.414062 C 92.019531 53.640625 92.308594 54.851562 92.652344 56.054688 C 92.996094 57.257812 93.386719 58.441406 93.832031 59.609375 C 94.273438 60.777344 94.765625 61.925781 95.304688 63.050781 C 95.847656 64.179688 96.433594 65.28125 97.066406 66.359375 C 97.699219 67.433594 98.378906 68.484375 99.101562 69.503906 C 99.824219 70.523438 100.585938 71.511719 101.390625 72.464844 C 102.199219 73.421875 103.042969 74.339844 103.925781 75.222656 C 104.808594 76.105469 105.730469 76.953125 106.683594 77.757812 C 107.640625 78.5625 108.625 79.328125 109.644531 80.050781 C 110.664062 80.769531 111.714844 81.449219 112.792969 82.082031 C 113.867188 82.714844 114.96875 83.304688 116.097656 83.84375 C 117.222656 84.382812 118.371094 84.875 119.539062 85.316406 C 120.707031 85.761719 121.894531 86.152344 123.09375 86.496094 C 124.296875 86.839844 125.511719 87.132812 126.734375 87.371094 C 127.960938 87.609375 129.195312 87.800781 130.4375 87.933594 C 142.480469 89.253906 158.019531 90.105469 178.085938 90.105469 C 158.019531 90.105469 142.480469 90.960938 130.4375 92.277344 C 129.195312 92.414062 127.960938 92.601562 126.734375 92.84375 C 125.511719 93.082031 124.296875 93.375 123.09375 93.714844 C 121.894531 94.058594 120.707031 94.453125 119.539062 94.894531 C 118.371094 95.339844 117.222656 95.828125 116.097656 96.371094 C 114.96875 96.910156 113.867188 97.496094 112.792969 98.128906 C 111.714844 98.765625 110.664062 99.441406 109.644531 100.164062 C 108.625 100.886719 107.640625 101.648438 106.683594 102.457031 C 105.730469 103.261719 104.808594 104.105469 103.925781 104.988281 C 103.042969 105.875 102.199219 106.792969 101.390625 107.746094 C 100.585938 108.703125 99.824219 109.691406 99.101562 110.710938 C 98.378906 111.730469 97.699219 112.777344 97.066406 113.855469 C 96.433594 114.933594 95.847656 116.035156 95.304688 117.160156 C 94.765625 118.289062 94.273438 119.433594 93.832031 120.601562 C 93.386719 121.773438 92.996094 122.957031 92.652344 124.15625 C 92.308594 125.359375 92.019531 126.574219 91.777344 127.800781 C 91.539062 129.027344 91.351562 130.261719 91.214844 131.503906 C 89.894531 143.542969 89.042969 159.085938 89.042969 179.148438 C 89.042969 159.085938 88.191406 143.542969 86.871094 131.503906 C 86.734375 130.261719 86.546875 129.027344 86.308594 127.800781 C 86.066406 126.574219 85.777344 125.359375 85.433594 124.15625 C 85.089844 122.957031 84.699219 121.773438 84.253906 120.601562 C 83.8125 119.433594 83.320312 118.289062 82.777344 117.160156 C 82.238281 116.035156 81.652344 114.933594 81.019531 113.855469 C 80.386719 112.777344 79.707031 111.730469 78.984375 110.710938 C 78.261719 109.691406 77.5 108.703125 76.691406 107.746094 C 75.886719 106.792969 75.042969 105.875 74.160156 104.988281 C 73.277344 104.105469 72.355469 103.261719 71.402344 102.457031 C 70.445312 101.648438 69.457031 100.886719 68.4375 100.164062 C 67.417969 99.441406 66.371094 98.765625 65.292969 98.128906 C 64.21875 97.496094 63.113281 96.910156 61.988281 96.371094 C 60.863281 95.828125 59.714844 95.339844 58.546875 94.894531 C 57.378906 94.453125 56.191406 94.058594 54.992188 93.714844 C 53.789062 93.375 52.574219 93.082031 51.347656 92.84375 C 50.121094 92.601562 48.886719 92.414062 47.644531 92.277344 C 35.605469 90.960938 20.0625 90.105469 0 90.105469 C 20.0625 90.105469 35.605469 89.253906 47.644531 87.933594 C 48.886719 87.800781 50.121094 87.609375 51.347656 87.371094 C 52.574219 87.132812 53.789062 86.839844 54.992188 86.496094 C 56.191406 86.152344 57.378906 85.761719 58.546875 85.316406 C 59.714844 84.875 60.863281 84.382812 61.988281 83.84375 C 63.113281 83.300781 64.21875 82.714844 65.292969 82.082031 C 66.371094 81.449219 67.417969 80.769531 68.4375 80.050781 C 69.457031 79.328125 70.445312 78.5625 71.402344 77.757812 C 72.355469 76.949219 73.277344 76.105469 74.160156 75.222656 C 75.042969 74.339844 75.886719 73.421875 76.691406 72.464844 C 77.5 71.511719 78.261719 70.523438 78.984375 69.503906 C 79.707031 68.484375 80.386719 67.433594 81.019531 66.359375 C 81.652344 65.28125 82.238281 64.179688 82.777344 63.050781 C 83.320312 61.925781 83.8125 60.777344 84.253906 59.609375 C 84.695312 58.441406 85.089844 57.257812 85.433594 56.054688 C 85.777344 54.851562 86.066406 53.640625 86.308594 52.414062 C 86.546875 51.1875 86.734375 49.953125 86.871094 48.710938 C 88.191406 36.667969 89.042969 21.128906 89.042969 1.0625 C 89.042969 21.128906 89.894531 36.667969 91.214844 48.710938 Z M 91.214844 48.710938 " fill-opacity="1" fill-rule="nonzero"/></g><g fill="#b6192e" fill-opacity="1"><g transform="translate(114.007723, 200.68402)"><g><path d="M 7.25 0 L 7.25 -83.6875 L 24.4375 -83.6875 L 24.4375 -14.375 L 61 -14.375 L 61 0 Z M 7.25 0 "/></g></g></g><g fill="#b6192e" fill-opacity="1"><g transform="translate(178.825824, 200.68402)"><g><path d="M 6.90625 0 L 6.90625 -62.015625 L 23.640625 -62.015625 L 23.640625 0 Z M 15.28125 -70.046875 C 12.695312 -70.046875 10.492188 -70.882812 8.671875 -72.5625 C 6.859375 -74.25 5.953125 -76.3125 5.953125 -78.75 C 5.953125 -81.175781 6.859375 -83.234375 8.671875 -84.921875 C 10.492188 -86.609375 12.695312 -87.453125 15.28125 -87.453125 C 17.863281 -87.453125 20.050781 -86.609375 21.84375 -84.921875 C 23.644531 -83.234375 24.546875 -81.175781 24.546875 -78.75 C 24.546875 -76.3125 23.644531 -74.25 21.84375 -72.5625 C 20.050781 -70.882812 17.863281 -70.046875 15.28125 -70.046875 Z M 15.28125 -70.046875 "/></g></g></g><g fill="#b6192e" fill-opacity="1"><g transform="translate(209.381324, 200.68402)"><g><path d="M 41.734375 -62.015625 L 41.734375 -49.140625 L 1.0625 -49.140625 L 1.0625 -62.015625 Z M 12.078125 0 L 12.078125 -67.453125 C 12.078125 -71.765625 12.925781 -75.34375 14.625 -78.1875 C 16.332031 -81.03125 18.703125 -83.160156 21.734375 -84.578125 C 24.765625 -86.003906 28.25 -86.71875 32.1875 -86.71875 C 34.695312 -86.71875 37.007812 -86.554688 39.125 -86.234375 C 41.238281 -85.921875 42.765625 -85.632812 43.703125 -85.375 L 41.34375 -72.625 C 40.707031 -72.769531 39.875 -72.914062 38.84375 -73.0625 C 37.8125 -73.21875 36.769531 -73.296875 35.71875 -73.296875 C 33.207031 -73.296875 31.425781 -72.710938 30.375 -71.546875 C 29.332031 -70.390625 28.8125 -68.691406 28.8125 -66.453125 L 28.8125 0 Z M 12.078125 0 "/></g></g></g><g fill="#b6192e" fill-opacity="1"><g transform="translate(252.293781, 200.68402)"><g><path d="M 35 1.234375 C 28.664062 1.234375 23.203125 -0.0703125 18.609375 -2.6875 C 14.023438 -5.3125 10.488281 -9.019531 8 -13.8125 C 5.507812 -18.601562 4.265625 -24.238281 4.265625 -30.71875 C 4.265625 -37.125 5.5 -42.734375 7.96875 -47.546875 C 10.445312 -52.359375 13.929688 -56.117188 18.421875 -58.828125 C 22.910156 -61.546875 28.171875 -62.90625 34.203125 -62.90625 C 38.359375 -62.90625 42.210938 -62.226562 45.765625 -60.875 C 49.328125 -59.53125 52.445312 -57.535156 55.125 -54.890625 C 57.800781 -52.253906 59.878906 -48.960938 61.359375 -45.015625 C 62.835938 -41.066406 63.578125 -36.507812 63.578125 -31.34375 L 63.578125 -26.671875 L 10.953125 -26.671875 L 10.953125 -37.234375 L 55.4375 -37.234375 L 47.625 -34.484375 C 47.625 -37.703125 47.117188 -40.488281 46.109375 -42.84375 C 45.097656 -45.207031 43.609375 -47.035156 41.640625 -48.328125 C 39.679688 -49.617188 37.257812 -50.265625 34.375 -50.265625 C 31.488281 -50.265625 29.035156 -49.609375 27.015625 -48.296875 C 24.992188 -46.992188 23.445312 -45.195312 22.375 -42.90625 C 21.3125 -40.625 20.78125 -38.003906 20.78125 -35.046875 L 20.78125 -27.640625 C 20.78125 -24.148438 21.378906 -21.1875 22.578125 -18.75 C 23.773438 -16.320312 25.46875 -14.476562 27.65625 -13.21875 C 29.851562 -11.96875 32.410156 -11.34375 35.328125 -11.34375 C 37.316406 -11.34375 39.125 -11.632812 40.75 -12.21875 C 42.375 -12.800781 43.757812 -13.644531 44.90625 -14.75 C 46.050781 -15.851562 46.921875 -17.207031 47.515625 -18.8125 L 62.734375 -16.625 C 61.765625 -13.03125 60.015625 -9.894531 57.484375 -7.21875 C 54.960938 -4.539062 51.800781 -2.460938 48 -0.984375 C 44.195312 0.492188 39.863281 1.234375 35 1.234375 Z M 35 1.234375 "/></g></g></g></g></g></svg>