<svg xmlns="http://www.w3.org/2000/svg" xmlns:xlink="http://www.w3.org/1999/xlink" width="500" zoomAndPan="magnify" viewBox="0 0 375 374.999991" height="500" preserveAspectRatio="xMidYMid meet" version="1.0"><defs><g/><clipPath id="f2be909736"><path d="M 211.480469 153.058594 L 241.480469 153.058594 L 241.480469 183.058594 L 211.480469 183.058594 Z M 211.480469 153.058594 " clip-rule="nonzero"/></clipPath></defs><g fill="#b6192e" fill-opacity="1"><g transform="translate(80.807805, 211.691324)"><g><path d="M 26.796875 -28.078125 L 26.796875 0 L 19.953125 0 L 19.953125 -11.5625 L 9.3125 -11.5625 L 9.3125 0 L 2.484375 0 L 2.484375 -28.078125 L 9.3125 -28.078125 L 9.3125 -17.078125 L 19.953125 -17.078125 L 19.953125 -28.078125 Z M 26.796875 -28.078125 "/></g></g></g><g fill="#b6192e" fill-opacity="1"><g transform="translate(110.044894, 211.691324)"><g><path d="M 15.765625 0.28125 C 13.117188 0.28125 10.695312 -0.332031 8.5 -1.5625 C 6.300781 -2.789062 4.550781 -4.503906 3.25 -6.703125 C 1.957031 -8.898438 1.3125 -11.375 1.3125 -14.125 C 1.3125 -16.863281 1.957031 -19.328125 3.25 -21.515625 C 4.550781 -23.703125 6.300781 -25.410156 8.5 -26.640625 C 10.695312 -27.867188 13.117188 -28.484375 15.765625 -28.484375 C 18.398438 -28.484375 20.816406 -27.867188 23.015625 -26.640625 C 25.210938 -25.410156 26.945312 -23.703125 28.21875 -21.515625 C 29.488281 -19.328125 30.125 -16.863281 30.125 -14.125 C 30.125 -11.375 29.484375 -8.898438 28.203125 -6.703125 C 26.921875 -4.503906 25.1875 -2.789062 23 -1.5625 C 20.8125 -0.332031 18.398438 0.28125 15.765625 0.28125 Z M 15.765625 -5.953125 C 18.003906 -5.953125 19.796875 -6.695312 21.140625 -8.1875 C 22.484375 -9.6875 23.15625 -11.664062 23.15625 -14.125 C 23.15625 -16.601562 22.484375 -18.582031 21.140625 -20.0625 C 19.796875 -21.539062 18.003906 -22.28125 15.765625 -22.28125 C 13.492188 -22.28125 11.679688 -21.546875 10.328125 -20.078125 C 8.984375 -18.609375 8.3125 -16.625 8.3125 -14.125 C 8.3125 -11.644531 8.984375 -9.660156 10.328125 -8.171875 C 11.679688 -6.691406 13.492188 -5.953125 15.765625 -5.953125 Z M 15.765625 -5.953125 "/></g></g></g><g fill="#b6192e" fill-opacity="1"><g transform="translate(141.481767, 211.691324)"><g><path d="M 16.796875 0 L 10.953125 -10.59375 L 9.3125 -10.59375 L 9.3125 0 L 2.484375 0 L 2.484375 -28.078125 L 13.953125 -28.078125 C 16.171875 -28.078125 18.054688 -27.691406 19.609375 -26.921875 C 21.171875 -26.148438 22.335938 -25.085938 23.109375 -23.734375 C 23.890625 -22.390625 24.28125 -20.890625 24.28125 -19.234375 C 24.28125 -17.367188 23.753906 -15.703125 22.703125 -14.234375 C 21.648438 -12.773438 20.097656 -11.738281 18.046875 -11.125 L 24.515625 0 Z M 9.3125 -15.4375 L 13.5625 -15.4375 C 14.8125 -15.4375 15.75 -15.742188 16.375 -16.359375 C 17 -16.972656 17.3125 -17.835938 17.3125 -18.953125 C 17.3125 -20.023438 17 -20.867188 16.375 -21.484375 C 15.75 -22.097656 14.8125 -22.40625 13.5625 -22.40625 L 9.3125 -22.40625 Z M 9.3125 -15.4375 "/></g></g></g><g fill="#b6192e" fill-opacity="1"><g transform="translate(167.559176, 211.691324)"><g><path d="M 19.953125 -4.953125 L 9.484375 -4.953125 L 7.796875 0 L 0.640625 0 L 10.796875 -28.078125 L 18.71875 -28.078125 L 28.875 0 L 21.640625 0 Z M 18.203125 -10.234375 L 14.71875 -20.515625 L 11.28125 -10.234375 Z M 18.203125 -10.234375 "/></g></g></g><g fill="#b6192e" fill-opacity="1"><g transform="translate(197.036248, 211.691324)"><g><path d="M 9.765625 -5.59375 L 21.84375 -5.59375 L 21.84375 0 L 2 0 L 2 -5.203125 L 14 -22.484375 L 2 -22.484375 L 2 -28.078125 L 21.84375 -28.078125 L 21.84375 -22.875 Z M 9.765625 -5.59375 "/></g></g></g><g fill="#b6192e" fill-opacity="1"><g transform="translate(220.873878, 211.691324)"><g><path d="M 9.3125 -28.078125 L 9.3125 0 L 2.484375 0 L 2.484375 -28.078125 Z M 9.3125 -28.078125 "/></g></g></g><g fill="#b6192e" fill-opacity="1"><g transform="translate(232.672701, 211.691324)"><g><path d="M 15.765625 0.28125 C 13.117188 0.28125 10.695312 -0.332031 8.5 -1.5625 C 6.300781 -2.789062 4.550781 -4.503906 3.25 -6.703125 C 1.957031 -8.898438 1.3125 -11.375 1.3125 -14.125 C 1.3125 -16.863281 1.957031 -19.328125 3.25 -21.515625 C 4.550781 -23.703125 6.300781 -25.410156 8.5 -26.640625 C 10.695312 -27.867188 13.117188 -28.484375 15.765625 -28.484375 C 18.398438 -28.484375 20.816406 -27.867188 23.015625 -26.640625 C 25.210938 -25.410156 26.945312 -23.703125 28.21875 -21.515625 C 29.488281 -19.328125 30.125 -16.863281 30.125 -14.125 C 30.125 -11.375 29.484375 -8.898438 28.203125 -6.703125 C 26.921875 -4.503906 25.1875 -2.789062 23 -1.5625 C 20.8125 -0.332031 18.398438 0.28125 15.765625 0.28125 Z M 15.765625 -5.953125 C 18.003906 -5.953125 19.796875 -6.695312 21.140625 -8.1875 C 22.484375 -9.6875 23.15625 -11.664062 23.15625 -14.125 C 23.15625 -16.601562 22.484375 -18.582031 21.140625 -20.0625 C 19.796875 -21.539062 18.003906 -22.28125 15.765625 -22.28125 C 13.492188 -22.28125 11.679688 -21.546875 10.328125 -20.078125 C 8.984375 -18.609375 8.3125 -16.625 8.3125 -14.125 C 8.3125 -11.644531 8.984375 -9.660156 10.328125 -8.171875 C 11.679688 -6.691406 13.492188 -5.953125 15.765625 -5.953125 Z M 15.765625 -5.953125 "/></g></g></g><g fill="#b6192e" fill-opacity="1"><g transform="translate(264.109574, 211.691324)"><g><path d="M 27.59375 0 L 20.765625 0 L 9.3125 -17.3125 L 9.3125 0 L 2.484375 0 L 2.484375 -28.078125 L 9.3125 -28.078125 L 20.765625 -10.6875 L 20.765625 -28.078125 L 27.59375 -28.078125 Z M 27.59375 0 "/></g></g></g><g clip-path="url(#f2be909736)"><path fill="#b6192e" d="M 226.933594 161.132812 C 227.027344 161.980469 227.257812 162.792969 227.628906 163.5625 C 228 164.332031 228.484375 165.019531 229.089844 165.625 C 229.695312 166.230469 230.382812 166.714844 231.152344 167.085938 C 231.921875 167.457031 232.730469 167.6875 233.582031 167.777344 C 235.621094 168.003906 238.253906 168.148438 241.65625 168.148438 C 238.257812 168.148438 235.621094 168.292969 233.582031 168.515625 C 232.730469 168.609375 231.921875 168.839844 231.152344 169.207031 C 230.382812 169.578125 229.695312 170.066406 229.089844 170.667969 C 228.484375 171.273438 228 171.960938 227.628906 172.730469 C 227.257812 173.503906 227.027344 174.3125 226.933594 175.160156 C 226.710938 177.203125 226.566406 179.835938 226.566406 183.234375 C 226.566406 179.835938 226.421875 177.203125 226.199219 175.160156 C 226.105469 174.3125 225.875 173.503906 225.503906 172.730469 C 225.136719 171.960938 224.648438 171.273438 224.046875 170.667969 C 223.441406 170.066406 222.753906 169.578125 221.984375 169.207031 C 221.210938 168.839844 220.402344 168.609375 219.550781 168.515625 C 217.511719 168.292969 214.878906 168.148438 211.480469 168.148438 C 214.878906 168.148438 217.511719 168.003906 219.550781 167.777344 C 220.402344 167.6875 221.210938 167.457031 221.984375 167.085938 C 222.753906 166.714844 223.441406 166.230469 224.046875 165.625 C 224.648438 165.019531 225.136719 164.332031 225.503906 163.5625 C 225.875 162.792969 226.105469 161.980469 226.199219 161.132812 C 226.421875 159.09375 226.566406 156.457031 226.566406 153.058594 C 226.566406 156.457031 226.710938 159.09375 226.933594 161.132812 Z M 226.933594 161.132812 " fill-opacity="1" fill-rule="nonzero"/></g><g fill="#545454" fill-opacity="1"><g transform="translate(208.832232, 234.854267)"><g><path d="M 9.78125 -3.09375 L 3.703125 -3.09375 L 2.578125 0 L 0.65625 0 L 5.703125 -13.859375 L 7.796875 -13.859375 L 12.8125 0 L 10.90625 0 Z M 9.265625 -4.578125 L 6.734375 -11.625 L 4.21875 -4.578125 Z M 9.265625 -4.578125 "/></g></g></g><g fill="#545454" fill-opacity="1"><g transform="translate(222.306917, 234.854267)"><g><path d="M 0.859375 -5.5 C 0.859375 -6.632812 1.082031 -7.625 1.53125 -8.46875 C 1.988281 -9.3125 2.617188 -9.96875 3.421875 -10.4375 C 4.234375 -10.90625 5.160156 -11.140625 6.203125 -11.140625 C 7.546875 -11.140625 8.65625 -10.8125 9.53125 -10.15625 C 10.40625 -9.507812 10.984375 -8.601562 11.265625 -7.4375 L 9.296875 -7.4375 C 9.109375 -8.101562 8.742188 -8.628906 8.203125 -9.015625 C 7.671875 -9.398438 7.003906 -9.59375 6.203125 -9.59375 C 5.160156 -9.59375 4.316406 -9.234375 3.671875 -8.515625 C 3.035156 -7.804688 2.71875 -6.800781 2.71875 -5.5 C 2.71875 -4.175781 3.035156 -3.15625 3.671875 -2.4375 C 4.316406 -1.71875 5.160156 -1.359375 6.203125 -1.359375 C 7.003906 -1.359375 7.671875 -1.546875 8.203125 -1.921875 C 8.734375 -2.296875 9.097656 -2.828125 9.296875 -3.515625 L 11.265625 -3.515625 C 10.960938 -2.398438 10.375 -1.503906 9.5 -0.828125 C 8.625 -0.148438 7.523438 0.1875 6.203125 0.1875 C 5.160156 0.1875 4.234375 -0.046875 3.421875 -0.515625 C 2.617188 -0.984375 1.988281 -1.644531 1.53125 -2.5 C 1.082031 -3.351562 0.859375 -4.351562 0.859375 -5.5 Z M 0.859375 -5.5 "/></g></g></g><g fill="#545454" fill-opacity="1"><g transform="translate(234.442128, 234.854267)"><g><path d="M 0.859375 -5.5 C 0.859375 -6.632812 1.082031 -7.625 1.53125 -8.46875 C 1.988281 -9.3125 2.617188 -9.96875 3.421875 -10.4375 C 4.234375 -10.90625 5.160156 -11.140625 6.203125 -11.140625 C 7.546875 -11.140625 8.65625 -10.8125 9.53125 -10.15625 C 10.40625 -9.507812 10.984375 -8.601562 11.265625 -7.4375 L 9.296875 -7.4375 C 9.109375 -8.101562 8.742188 -8.628906 8.203125 -9.015625 C 7.671875 -9.398438 7.003906 -9.59375 6.203125 -9.59375 C 5.160156 -9.59375 4.316406 -9.234375 3.671875 -8.515625 C 3.035156 -7.804688 2.71875 -6.800781 2.71875 -5.5 C 2.71875 -4.175781 3.035156 -3.15625 3.671875 -2.4375 C 4.316406 -1.71875 5.160156 -1.359375 6.203125 -1.359375 C 7.003906 -1.359375 7.671875 -1.546875 8.203125 -1.921875 C 8.734375 -2.296875 9.097656 -2.828125 9.296875 -3.515625 L 11.265625 -3.515625 C 10.960938 -2.398438 10.375 -1.503906 9.5 -0.828125 C 8.625 -0.148438 7.523438 0.1875 6.203125 0.1875 C 5.160156 0.1875 4.234375 -0.046875 3.421875 -0.515625 C 2.617188 -0.984375 1.988281 -1.644531 1.53125 -2.5 C 1.082031 -3.351562 0.859375 -4.351562 0.859375 -5.5 Z M 0.859375 -5.5 "/></g></g></g><g fill="#545454" fill-opacity="1"><g transform="translate(246.57734, 234.854267)"><g><path d="M 6.3125 0.1875 C 5.289062 0.1875 4.363281 -0.046875 3.53125 -0.515625 C 2.695312 -0.984375 2.039062 -1.644531 1.5625 -2.5 C 1.09375 -3.363281 0.859375 -4.363281 0.859375 -5.5 C 0.859375 -6.625 1.097656 -7.613281 1.578125 -8.46875 C 2.066406 -9.332031 2.734375 -9.992188 3.578125 -10.453125 C 4.421875 -10.910156 5.363281 -11.140625 6.40625 -11.140625 C 7.4375 -11.140625 8.375 -10.910156 9.21875 -10.453125 C 10.0625 -9.992188 10.722656 -9.335938 11.203125 -8.484375 C 11.691406 -7.628906 11.9375 -6.632812 11.9375 -5.5 C 11.9375 -4.363281 11.6875 -3.363281 11.1875 -2.5 C 10.6875 -1.644531 10.007812 -0.984375 9.15625 -0.515625 C 8.300781 -0.046875 7.351562 0.1875 6.3125 0.1875 Z M 6.3125 -1.421875 C 6.96875 -1.421875 7.582031 -1.570312 8.15625 -1.875 C 8.726562 -2.1875 9.191406 -2.648438 9.546875 -3.265625 C 9.898438 -3.878906 10.078125 -4.625 10.078125 -5.5 C 10.078125 -6.375 9.90625 -7.117188 9.5625 -7.734375 C 9.21875 -8.347656 8.765625 -8.804688 8.203125 -9.109375 C 7.640625 -9.410156 7.03125 -9.5625 6.375 -9.5625 C 5.707031 -9.5625 5.097656 -9.410156 4.546875 -9.109375 C 3.992188 -8.804688 3.550781 -8.347656 3.21875 -7.734375 C 2.882812 -7.117188 2.71875 -6.375 2.71875 -5.5 C 2.71875 -4.601562 2.878906 -3.847656 3.203125 -3.234375 C 3.535156 -2.617188 3.972656 -2.160156 4.515625 -1.859375 C 5.066406 -1.566406 5.664062 -1.421875 6.3125 -1.421875 Z M 6.3125 -1.421875 "/></g></g></g><g fill="#545454" fill-opacity="1"><g transform="translate(259.372291, 234.854267)"><g><path d="M 11.265625 -10.953125 L 11.265625 0 L 9.4375 0 L 9.4375 -1.625 C 9.09375 -1.0625 8.609375 -0.625 7.984375 -0.3125 C 7.367188 0 6.6875 0.15625 5.9375 0.15625 C 5.082031 0.15625 4.316406 -0.0195312 3.640625 -0.375 C 2.960938 -0.726562 2.425781 -1.253906 2.03125 -1.953125 C 1.632812 -2.660156 1.4375 -3.523438 1.4375 -4.546875 L 1.4375 -10.953125 L 3.234375 -10.953125 L 3.234375 -4.78125 C 3.234375 -3.695312 3.503906 -2.863281 4.046875 -2.28125 C 4.597656 -1.707031 5.347656 -1.421875 6.296875 -1.421875 C 7.273438 -1.421875 8.039062 -1.71875 8.59375 -2.3125 C 9.15625 -2.914062 9.4375 -3.789062 9.4375 -4.9375 L 9.4375 -10.953125 Z M 11.265625 -10.953125 "/></g></g></g><g fill="#545454" fill-opacity="1"><g transform="translate(272.167243, 234.854267)"><g><path d="M 6.875 -11.15625 C 8.207031 -11.15625 9.285156 -10.75 10.109375 -9.9375 C 10.941406 -9.132812 11.359375 -7.972656 11.359375 -6.453125 L 11.359375 0 L 9.5625 0 L 9.5625 -6.203125 C 9.5625 -7.296875 9.285156 -8.128906 8.734375 -8.703125 C 8.191406 -9.285156 7.445312 -9.578125 6.5 -9.578125 C 5.539062 -9.578125 4.773438 -9.273438 4.203125 -8.671875 C 3.640625 -8.078125 3.359375 -7.207031 3.359375 -6.0625 L 3.359375 0 L 1.546875 0 L 1.546875 -10.953125 L 3.359375 -10.953125 L 3.359375 -9.40625 C 3.722656 -9.957031 4.210938 -10.382812 4.828125 -10.6875 C 5.453125 -11 6.132812 -11.15625 6.875 -11.15625 Z M 6.875 -11.15625 "/></g></g></g><g fill="#545454" fill-opacity="1"><g transform="translate(284.962195, 234.854267)"><g><path d="M 3.765625 -9.453125 L 3.765625 -3 C 3.765625 -2.46875 3.875 -2.09375 4.09375 -1.875 C 4.320312 -1.65625 4.71875 -1.546875 5.28125 -1.546875 L 6.625 -1.546875 L 6.625 0 L 4.984375 0 C 3.960938 0 3.195312 -0.234375 2.6875 -0.703125 C 2.1875 -1.171875 1.9375 -1.9375 1.9375 -3 L 1.9375 -9.453125 L 0.515625 -9.453125 L 0.515625 -10.953125 L 1.9375 -10.953125 L 1.9375 -13.71875 L 3.765625 -13.71875 L 3.765625 -10.953125 L 6.625 -10.953125 L 6.625 -9.453125 Z M 3.765625 -9.453125 "/></g></g></g></svg>