<svg xmlns="http://www.w3.org/2000/svg" xmlns:xlink="http://www.w3.org/1999/xlink" width="500" zoomAndPan="magnify" viewBox="0 0 375 374.999991" height="500" preserveAspectRatio="xMidYMid meet" version="1.0"><defs><g/><clipPath id="20a992eedc"><path d="M 179.265625 153.058594 L 209.265625 153.058594 L 209.265625 183.058594 L 179.265625 183.058594 Z M 179.265625 153.058594 " clip-rule="nonzero"/></clipPath></defs><g fill="#545454" fill-opacity="1"><g transform="translate(262.390916, 204.566324)"><g><path d="M 10.5625 -9.59375 C 10.3125 -10.0625 9.945312 -10.421875 9.46875 -10.671875 C 9 -10.921875 8.441406 -11.046875 7.796875 -11.046875 C 6.691406 -11.046875 5.804688 -10.679688 5.140625 -9.953125 C 4.472656 -9.222656 4.140625 -8.253906 4.140625 -7.046875 C 4.140625 -5.742188 4.488281 -4.726562 5.1875 -4 C 5.882812 -3.28125 6.847656 -2.921875 8.078125 -2.921875 C 8.921875 -2.921875 9.628906 -3.132812 10.203125 -3.5625 C 10.785156 -3.988281 11.210938 -4.601562 11.484375 -5.40625 L 7.140625 -5.40625 L 7.140625 -7.921875 L 14.578125 -7.921875 L 14.578125 -4.734375 C 14.328125 -3.878906 13.894531 -3.085938 13.28125 -2.359375 C 12.675781 -1.628906 11.90625 -1.035156 10.96875 -0.578125 C 10.039062 -0.128906 8.988281 0.09375 7.8125 0.09375 C 6.425781 0.09375 5.191406 -0.207031 4.109375 -0.8125 C 3.023438 -1.414062 2.175781 -2.253906 1.5625 -3.328125 C 0.957031 -4.410156 0.65625 -5.648438 0.65625 -7.046875 C 0.65625 -8.429688 0.957031 -9.664062 1.5625 -10.75 C 2.175781 -11.832031 3.019531 -12.675781 4.09375 -13.28125 C 5.175781 -13.894531 6.410156 -14.203125 7.796875 -14.203125 C 9.472656 -14.203125 10.890625 -13.796875 12.046875 -12.984375 C 13.203125 -12.171875 13.96875 -11.039062 14.34375 -9.59375 Z M 10.5625 -9.59375 "/></g></g></g><g fill="#545454" fill-opacity="1"><g transform="translate(277.6249, 204.566324)"><g><path d="M 4.65625 -9.296875 C 5.0625 -9.910156 5.5625 -10.394531 6.15625 -10.75 C 6.757812 -11.101562 7.425781 -11.28125 8.15625 -11.28125 L 8.15625 -7.65625 L 7.21875 -7.65625 C 6.363281 -7.65625 5.722656 -7.472656 5.296875 -7.109375 C 4.867188 -6.742188 4.65625 -6.101562 4.65625 -5.1875 L 4.65625 0 L 1.234375 0 L 1.234375 -11.15625 L 4.65625 -11.15625 Z M 4.65625 -9.296875 "/></g></g></g><g fill="#545454" fill-opacity="1"><g transform="translate(286.181521, 204.566324)"><g><path d="M 6.3125 0.15625 C 5.226562 0.15625 4.25 -0.0703125 3.375 -0.53125 C 2.5 -1 1.8125 -1.664062 1.3125 -2.53125 C 0.8125 -3.40625 0.5625 -4.421875 0.5625 -5.578125 C 0.5625 -6.722656 0.8125 -7.734375 1.3125 -8.609375 C 1.820312 -9.484375 2.515625 -10.148438 3.390625 -10.609375 C 4.273438 -11.078125 5.265625 -11.3125 6.359375 -11.3125 C 7.453125 -11.3125 8.4375 -11.078125 9.3125 -10.609375 C 10.195312 -10.148438 10.890625 -9.484375 11.390625 -8.609375 C 11.898438 -7.734375 12.15625 -6.722656 12.15625 -5.578125 C 12.15625 -4.429688 11.898438 -3.421875 11.390625 -2.546875 C 10.878906 -1.671875 10.175781 -1 9.28125 -0.53125 C 8.394531 -0.0703125 7.40625 0.15625 6.3125 0.15625 Z M 6.3125 -2.796875 C 6.96875 -2.796875 7.523438 -3.035156 7.984375 -3.515625 C 8.453125 -3.992188 8.6875 -4.679688 8.6875 -5.578125 C 8.6875 -6.472656 8.460938 -7.160156 8.015625 -7.640625 C 7.566406 -8.117188 7.015625 -8.359375 6.359375 -8.359375 C 5.691406 -8.359375 5.140625 -8.117188 4.703125 -7.640625 C 4.265625 -7.171875 4.046875 -6.484375 4.046875 -5.578125 C 4.046875 -4.679688 4.257812 -3.992188 4.6875 -3.515625 C 5.125 -3.035156 5.664062 -2.796875 6.3125 -2.796875 Z M 6.3125 -2.796875 "/></g></g></g><g fill="#545454" fill-opacity="1"><g transform="translate(298.916494, 204.566324)"><g><path d="M 12.265625 -11.15625 L 12.265625 0 L 8.84375 0 L 8.84375 -1.515625 C 8.488281 -1.023438 8.015625 -0.628906 7.421875 -0.328125 C 6.835938 -0.0234375 6.179688 0.125 5.453125 0.125 C 4.609375 0.125 3.859375 -0.0625 3.203125 -0.4375 C 2.546875 -0.820312 2.035156 -1.375 1.671875 -2.09375 C 1.316406 -2.820312 1.140625 -3.671875 1.140625 -4.640625 L 1.140625 -11.15625 L 4.546875 -11.15625 L 4.546875 -5.09375 C 4.546875 -4.351562 4.738281 -3.773438 5.125 -3.359375 C 5.507812 -2.941406 6.03125 -2.734375 6.6875 -2.734375 C 7.351562 -2.734375 7.878906 -2.941406 8.265625 -3.359375 C 8.648438 -3.773438 8.84375 -4.351562 8.84375 -5.09375 L 8.84375 -11.15625 Z M 12.265625 -11.15625 "/></g></g></g><g fill="#545454" fill-opacity="1"><g transform="translate(312.391179, 204.566324)"><g><path d="M 4.65625 -9.578125 C 4.988281 -10.097656 5.445312 -10.515625 6.03125 -10.828125 C 6.625 -11.148438 7.3125 -11.3125 8.09375 -11.3125 C 9.019531 -11.3125 9.851562 -11.078125 10.59375 -10.609375 C 11.34375 -10.148438 11.929688 -9.484375 12.359375 -8.609375 C 12.796875 -7.742188 13.015625 -6.738281 13.015625 -5.59375 C 13.015625 -4.445312 12.796875 -3.4375 12.359375 -2.5625 C 11.929688 -1.695312 11.34375 -1.023438 10.59375 -0.546875 C 9.851562 -0.078125 9.019531 0.15625 8.09375 0.15625 C 7.320312 0.15625 6.640625 0 6.046875 -0.3125 C 5.453125 -0.632812 4.988281 -1.050781 4.65625 -1.5625 L 4.65625 5.3125 L 1.234375 5.3125 L 1.234375 -11.15625 L 4.65625 -11.15625 Z M 9.546875 -5.59375 C 9.546875 -6.445312 9.304688 -7.117188 8.828125 -7.609375 C 8.359375 -8.097656 7.773438 -8.34375 7.078125 -8.34375 C 6.398438 -8.34375 5.820312 -8.09375 5.34375 -7.59375 C 4.875 -7.101562 4.640625 -6.429688 4.640625 -5.578125 C 4.640625 -4.722656 4.875 -4.046875 5.34375 -3.546875 C 5.820312 -3.054688 6.398438 -2.8125 7.078125 -2.8125 C 7.753906 -2.8125 8.332031 -3.0625 8.8125 -3.5625 C 9.300781 -4.0625 9.546875 -4.738281 9.546875 -5.59375 Z M 9.546875 -5.59375 "/></g></g></g><g fill="#b6192e" fill-opacity="1"><g transform="translate(48.596387, 211.691324)"><g><path d="M 26.796875 -28.078125 L 26.796875 0 L 19.953125 0 L 19.953125 -11.5625 L 9.3125 -11.5625 L 9.3125 0 L 2.484375 0 L 2.484375 -28.078125 L 9.3125 -28.078125 L 9.3125 -17.078125 L 19.953125 -17.078125 L 19.953125 -28.078125 Z M 26.796875 -28.078125 "/></g></g></g><g fill="#b6192e" fill-opacity="1"><g transform="translate(77.833476, 211.691324)"><g><path d="M 15.765625 0.28125 C 13.117188 0.28125 10.695312 -0.332031 8.5 -1.5625 C 6.300781 -2.789062 4.550781 -4.503906 3.25 -6.703125 C 1.957031 -8.898438 1.3125 -11.375 1.3125 -14.125 C 1.3125 -16.863281 1.957031 -19.328125 3.25 -21.515625 C 4.550781 -23.703125 6.300781 -25.410156 8.5 -26.640625 C 10.695312 -27.867188 13.117188 -28.484375 15.765625 -28.484375 C 18.398438 -28.484375 20.816406 -27.867188 23.015625 -26.640625 C 25.210938 -25.410156 26.945312 -23.703125 28.21875 -21.515625 C 29.488281 -19.328125 30.125 -16.863281 30.125 -14.125 C 30.125 -11.375 29.484375 -8.898438 28.203125 -6.703125 C 26.921875 -4.503906 25.1875 -2.789062 23 -1.5625 C 20.8125 -0.332031 18.398438 0.28125 15.765625 0.28125 Z M 15.765625 -5.953125 C 18.003906 -5.953125 19.796875 -6.695312 21.140625 -8.1875 C 22.484375 -9.6875 23.15625 -11.664062 23.15625 -14.125 C 23.15625 -16.601562 22.484375 -18.582031 21.140625 -20.0625 C 19.796875 -21.539062 18.003906 -22.28125 15.765625 -22.28125 C 13.492188 -22.28125 11.679688 -21.546875 10.328125 -20.078125 C 8.984375 -18.609375 8.3125 -16.625 8.3125 -14.125 C 8.3125 -11.644531 8.984375 -9.660156 10.328125 -8.171875 C 11.679688 -6.691406 13.492188 -5.953125 15.765625 -5.953125 Z M 15.765625 -5.953125 "/></g></g></g><g fill="#b6192e" fill-opacity="1"><g transform="translate(109.270349, 211.691324)"><g><path d="M 16.796875 0 L 10.953125 -10.59375 L 9.3125 -10.59375 L 9.3125 0 L 2.484375 0 L 2.484375 -28.078125 L 13.953125 -28.078125 C 16.171875 -28.078125 18.054688 -27.691406 19.609375 -26.921875 C 21.171875 -26.148438 22.335938 -25.085938 23.109375 -23.734375 C 23.890625 -22.390625 24.28125 -20.890625 24.28125 -19.234375 C 24.28125 -17.367188 23.753906 -15.703125 22.703125 -14.234375 C 21.648438 -12.773438 20.097656 -11.738281 18.046875 -11.125 L 24.515625 0 Z M 9.3125 -15.4375 L 13.5625 -15.4375 C 14.8125 -15.4375 15.75 -15.742188 16.375 -16.359375 C 17 -16.972656 17.3125 -17.835938 17.3125 -18.953125 C 17.3125 -20.023438 17 -20.867188 16.375 -21.484375 C 15.75 -22.097656 14.8125 -22.40625 13.5625 -22.40625 L 9.3125 -22.40625 Z M 9.3125 -15.4375 "/></g></g></g><g fill="#b6192e" fill-opacity="1"><g transform="translate(135.347758, 211.691324)"><g><path d="M 19.953125 -4.953125 L 9.484375 -4.953125 L 7.796875 0 L 0.640625 0 L 10.796875 -28.078125 L 18.71875 -28.078125 L 28.875 0 L 21.640625 0 Z M 18.203125 -10.234375 L 14.71875 -20.515625 L 11.28125 -10.234375 Z M 18.203125 -10.234375 "/></g></g></g><g fill="#b6192e" fill-opacity="1"><g transform="translate(164.82483, 211.691324)"><g><path d="M 9.765625 -5.59375 L 21.84375 -5.59375 L 21.84375 0 L 2 0 L 2 -5.203125 L 14 -22.484375 L 2 -22.484375 L 2 -28.078125 L 21.84375 -28.078125 L 21.84375 -22.875 Z M 9.765625 -5.59375 "/></g></g></g><g fill="#b6192e" fill-opacity="1"><g transform="translate(188.66246, 211.691324)"><g><path d="M 9.3125 -28.078125 L 9.3125 0 L 2.484375 0 L 2.484375 -28.078125 Z M 9.3125 -28.078125 "/></g></g></g><g fill="#b6192e" fill-opacity="1"><g transform="translate(200.461283, 211.691324)"><g><path d="M 15.765625 0.28125 C 13.117188 0.28125 10.695312 -0.332031 8.5 -1.5625 C 6.300781 -2.789062 4.550781 -4.503906 3.25 -6.703125 C 1.957031 -8.898438 1.3125 -11.375 1.3125 -14.125 C 1.3125 -16.863281 1.957031 -19.328125 3.25 -21.515625 C 4.550781 -23.703125 6.300781 -25.410156 8.5 -26.640625 C 10.695312 -27.867188 13.117188 -28.484375 15.765625 -28.484375 C 18.398438 -28.484375 20.816406 -27.867188 23.015625 -26.640625 C 25.210938 -25.410156 26.945312 -23.703125 28.21875 -21.515625 C 29.488281 -19.328125 30.125 -16.863281 30.125 -14.125 C 30.125 -11.375 29.484375 -8.898438 28.203125 -6.703125 C 26.921875 -4.503906 25.1875 -2.789062 23 -1.5625 C 20.8125 -0.332031 18.398438 0.28125 15.765625 0.28125 Z M 15.765625 -5.953125 C 18.003906 -5.953125 19.796875 -6.695312 21.140625 -8.1875 C 22.484375 -9.6875 23.15625 -11.664062 23.15625 -14.125 C 23.15625 -16.601562 22.484375 -18.582031 21.140625 -20.0625 C 19.796875 -21.539062 18.003906 -22.28125 15.765625 -22.28125 C 13.492188 -22.28125 11.679688 -21.546875 10.328125 -20.078125 C 8.984375 -18.609375 8.3125 -16.625 8.3125 -14.125 C 8.3125 -11.644531 8.984375 -9.660156 10.328125 -8.171875 C 11.679688 -6.691406 13.492188 -5.953125 15.765625 -5.953125 Z M 15.765625 -5.953125 "/></g></g></g><g fill="#b6192e" fill-opacity="1"><g transform="translate(231.898156, 211.691324)"><g><path d="M 27.59375 0 L 20.765625 0 L 9.3125 -17.3125 L 9.3125 0 L 2.484375 0 L 2.484375 -28.078125 L 9.3125 -28.078125 L 20.765625 -10.6875 L 20.765625 -28.078125 L 27.59375 -28.078125 Z M 27.59375 0 "/></g></g></g><g clip-path="url(#20a992eedc)"><path fill="#b6192e" d="M 194.722656 161.132812 C 194.816406 161.980469 195.046875 162.792969 195.417969 163.5625 C 195.785156 164.332031 196.273438 165.019531 196.878906 165.625 C 197.480469 166.230469 198.167969 166.714844 198.941406 167.085938 C 199.710938 167.457031 200.519531 167.6875 201.371094 167.777344 C 203.410156 168.003906 206.042969 168.148438 209.445312 168.148438 C 206.042969 168.148438 203.410156 168.292969 201.371094 168.515625 C 200.519531 168.609375 199.710938 168.839844 198.941406 169.207031 C 198.167969 169.578125 197.480469 170.066406 196.878906 170.667969 C 196.273438 171.273438 195.785156 171.960938 195.417969 172.730469 C 195.046875 173.503906 194.816406 174.3125 194.722656 175.160156 C 194.5 177.203125 194.355469 179.835938 194.355469 183.234375 C 194.355469 179.835938 194.210938 177.203125 193.988281 175.160156 C 193.894531 174.3125 193.664062 173.503906 193.292969 172.730469 C 192.925781 171.960938 192.4375 171.273438 191.832031 170.667969 C 191.230469 170.066406 190.542969 169.578125 189.769531 169.207031 C 189 168.839844 188.191406 168.609375 187.339844 168.515625 C 185.300781 168.292969 182.667969 168.148438 179.265625 168.148438 C 182.667969 168.148438 185.300781 168.003906 187.339844 167.777344 C 188.191406 167.6875 189 167.457031 189.769531 167.085938 C 190.542969 166.714844 191.230469 166.230469 191.832031 165.625 C 192.4375 165.019531 192.925781 164.332031 193.292969 163.5625 C 193.664062 162.792969 193.894531 161.980469 193.988281 161.132812 C 194.210938 159.09375 194.355469 156.457031 194.355469 153.058594 C 194.355469 156.457031 194.5 159.09375 194.722656 161.132812 Z M 194.722656 161.132812 " fill-opacity="1" fill-rule="nonzero"/></g></svg>